# xmcd
#
# Track frame offsets: 
#        150
#        16266
#        35171
#        46892
#        64919
#        78962
#        96969
#        109460
#        125646
#        149332
#        163593
#        185225
#        202232
#        213795
#        232353
#        248722
#
# Disc length: 3554 seconds
#
# Revision: 6
# Processed by: cddbd v1.5.2PL0 Copyright (c) Steve Scherf et al.
# Submitted via: ExactAudioCopy v1.0b2
#
DISCID=f50de010
DTITLE=Alceu Valença, Elba Ramalho, Geraldo Azevedo e Zé Ramalho - O G
DTITLE=rande Encontro
DYEAR=1996
DGENRE=MPB
TTITLE0=Sabiá
TTITLE1=Coração Bobo
TTITLE2=Jacarepaguá  Blues
TTITLE3=Pelas Ruas Que Andei
TTITLE4=Talismã 
TTITLE5=O Ciúme
TTITLE6=Dia Branco
TTITLE7=O Amanhã É Distante 
TTITLE8=Admirável Gado Novo
TTITLE9=Trem Das Sete
TTITLE10=Chão De Giz
TTITLE11=Veja (Margarida)
TTITLE12=A Prosa Impúpura Do Caicó
TTITLE13=Tesoura Do Desejo
TTITLE14=Chorando E Cantando
TTITLE15=Banho De Cheiro - Frevo Mulher
EXTD=YEAR: 1996
EXTT0=\t\t\t\t\t\t\t\t\t\t\t\t\t
EXTT1=
EXTT2=
EXTT3=
EXTT4=
EXTT5=
EXTT6=
EXTT7=
EXTT8=
EXTT9=
EXTT10=
EXTT11=
EXTT12=
EXTT13=
EXTT14=
EXTT15=
PLAYORDER=
